<?xml version="1.0" encoding="utf-8"?>
<!-- Generator: Adobe Illustrator 19.1.0, SVG Export Plug-In . SVG Version: 6.00 Build 0)  -->
<svg version="1.1" id="Layer_1" xmlns="http://www.w3.org/2000/svg" xmlns:xlink="http://www.w3.org/1999/xlink" x="0px" y="0px"
	 viewBox="0 0 16 16" enable-background="new 0 0 16 16" xml:space="preserve">
<g>
	<path fill-rule="evenodd" clip-rule="evenodd" fill="#FFFFFF" d="M2,15.5c-0.83,0-1.5-0.67-1.5-1.5V2c0-0.83,0.67-1.5,1.5-1.5h12
		c0.83,0,1.5,0.67,1.5,1.5v12c0,0.83-0.67,1.5-1.5,1.5H2z"/>
	<path fill="#D1D1D0" d="M14,1c0.55,0,1,0.45,1,1v12c0,0.55-0.45,1-1,1H2c-0.55,0-1-0.45-1-1V2c0-0.55,0.45-1,1-1H14 M14,0H2
		C0.9,0,0,0.9,0,2v12c0,1.1,0.9,2,2,2h12c1.1,0,2-0.9,2-2V2C16,0.9,15.1,0,14,0L14,0z"/>
</g>
</svg>
