<?xml version="1.0" encoding="utf-8"?>
<!-- Generator: Adobe Illustrator 19.1.0, SVG Export Plug-In . SVG Version: 6.00 Build 0)  -->
<svg version="1.1" id="Layer_1" xmlns="http://www.w3.org/2000/svg" xmlns:xlink="http://www.w3.org/1999/xlink" x="0px" y="0px"
	 width="16px" height="16px" viewBox="-631 393 16 16" style="enable-background:new -631 393 16 16;" xml:space="preserve">
<style type="text/css">
	.st0{fill:#FFFFFF;}
	.st1{fill:#D1D1D0;}
</style>
<g>
	<path class="st0" d="M-629,408.5c-0.8,0-1.5-0.7-1.5-1.5v-12c0-0.8,0.7-1.5,1.5-1.5h12c0.8,0,1.5,0.7,1.5,1.5v12
		c0,0.8-0.7,1.5-1.5,1.5H-629z"/>
	<path class="st1" d="M-617,394c0.5,0,1,0.5,1,1v12c0,0.5-0.5,1-1,1h-12c-0.5,0-1-0.5-1-1v-12c0-0.5,0.5-1,1-1H-617 M-617,393h-12
		c-1.1,0-2,0.9-2,2v12c0,1.1,0.9,2,2,2h12c1.1,0,2-0.9,2-2v-12C-615,393.9-615.9,393-617,393L-617,393z"/>
</g>
</svg>
