<svg version="1.1" xmlns="http://www.w3.org/2000/svg" xmlns:xlink="http://www.w3.org/1999/xlink" width="40" height="40" viewBox="0 0 40 40"><g id="logo"><path id="head" d="M19.968,0.001 C31.013,0.001 39.966,8.955 39.966,20.001 C39.966,31.046 31.013,40.000 19.968,40.000 C8.924,40.000 -0.029,31.046 -0.029,20.001 C-0.029,8.955 8.924,0.001 19.968,0.001 z" fill="#4495D4" /><path id="head" d="M19.968,40.000 C18.158,40.000 16.413,39.738 14.746,39.287 C13.592,34.476 10.670,21.932 10.066,15.756 C9.691,11.922 11.421,9.590 14.873,8.625 C12.880,8.391 10.751,8.506 10.751,8.506 C10.854,7.167 12.785,6.909 12.785,6.909 C11.781,6.394 10.876,6.133 10.876,6.133 C15.440,5.491 18.561,6.739 20.274,8.293 C26.023,9.378 26.960,15.821 26.960,17.648 C26.960,25.089 21.011,17.101 21.011,26.434 C21.011,30.058 23.799,36.250 25.295,39.260 C23.597,39.729 21.816,40.000 19.968,40.000 z" fill="#FFFFFF" /><path id="beak" d="M18.987,23.056 C18.987,20.619 22.314,19.846 23.551,19.846 C26.950,19.846 31.723,17.671 32.923,17.708 C34.123,17.746 34.896,18.229 34.896,18.791 C34.896,19.612 28.127,22.649 25.477,22.400 C22.980,22.165 22.389,22.441 22.389,23.482 C22.389,24.382 24.188,25.170 26.175,25.170 C29.149,25.170 32.075,23.826 32.967,24.484 C33.730,25.046 30.923,27.022 27.728,27.022 C24.533,27.022 18.987,25.493 18.987,23.056 z" fill="#FED30A" /><path id="bowtie" d="M15.353,31.483 C15.831,31.036 19.823,32.952 19.823,32.952 C19.823,32.952 20.333,32.345 21.579,32.377 C22.824,32.409 23.079,32.856 23.079,32.856 C23.079,32.856 26.205,30.399 27.245,30.653 C27.890,30.810 27.965,36.274 27.230,36.657 C26.496,37.040 23.047,35.475 23.047,35.475 C23.047,35.475 22.473,36.401 21.323,36.401 C20.174,36.401 19.439,36.178 19.439,36.178 C19.439,36.178 16.975,37.959 16.185,37.730 C15.244,37.457 14.874,31.930 15.353,31.483 z" fill="#65BB46" /><path id="bowtie-shadow" d="M19.601,33.255 C19.286,33.571 19.000,35.908 19.703,36.324 C20.406,36.740 22.242,36.337 22.772,35.895 C23.030,35.680 20.104,36.422 19.816,35.953 C19.263,35.047 19.917,32.939 19.601,33.255 z" fill="#43A244" /><path id="eyes" d="M21.853,12.888 C22.389,11.555 23.984,11.592 24.869,12.739 C23.735,12.078 22.700,12.215 21.853,12.888 zM14.697,18.388 C13.921,18.388 13.291,17.759 13.291,16.982 C13.291,16.206 13.921,15.577 14.697,15.577 C15.473,15.577 16.103,16.206 16.103,16.982 C16.103,17.759 15.473,18.388 14.697,18.388 zM15.218,16.062 C14.992,16.062 14.808,16.245 14.808,16.471 C14.808,16.698 14.992,16.881 15.218,16.881 C15.444,16.881 15.628,16.698 15.628,16.471 C15.628,16.245 15.444,16.062 15.218,16.062 zM11.896,14.271 C11.759,11.978 13.803,12.040 15.012,12.776 C13.292,12.589 12.494,12.863 11.896,14.271 zM24.118,14.915 C24.791,14.915 25.337,15.460 25.337,16.133 C25.337,16.806 24.791,17.352 24.118,17.352 C23.446,17.352 22.900,16.806 22.900,16.133 C22.900,15.460 23.446,14.915 24.118,14.915 zM24.570,16.046 C24.766,16.046 24.925,15.887 24.925,15.690 C24.925,15.494 24.766,15.335 24.570,15.335 C24.374,15.335 24.215,15.494 24.215,15.690 C24.215,15.887 24.374,16.046 24.570,16.046 z" fill="#2D4F8D" /></g></svg>